0
SECTION
2
HEADER
9
$INSUNITS
70
4
9
$ACADVER
1
AC1014
9
$HANDSEED
5
FFFF
0
ENDSEC
0
SECTION
2
TABLES
0
TABLE
2
VPORT
5
8
100
AcDbSymbolTable
0
ENDTAB
0
TABLE
2
LTYPE
5
5
100
AcDbSymbolTable
0
LTYPE
5
14
100
AcDbSymbolTableRecord
100
AcDbLinetypeTableRecord
2
BYBLOCK
70
0
0
LTYPE
5
15
100
AcDbSymbolTableRecord
100
AcDbLinetypeTableRecord
2
BYLAYER
70
0
0
ENDTAB
0
TABLE
2
LAYER
5
2
100
AcDbSymbolTable
70
2
0
LAYER
5
50
100
AcDbSymbolTableRecord
100
AcDbLayerTableRecord
2
0
70
0
6
CONTINUOUS
0
ENDTAB
0
TABLE
2
STYLE
5
3
100
AcDbSymbolTable
70
1
0
STYLE
5
11
100
AcDbSymbolTableRecord
100
AcDbTextStyleTableRecord
2
STANDARD
70
0
0
ENDTAB
0
TABLE
2
VIEW
5
6
100
AcDbSymbolTable
70
0
0
ENDTAB
0
TABLE
2
UCS
5
7
100
AcDbSymbolTable
70
0
0
ENDTAB
0
TABLE
2
APPID
5
9
100
AcDbSymbolTable
70
2
0
APPID
5
12
100
AcDbSymbolTableRecord
100
AcDbRegAppTableRecord
2
ACAD
70
0
0
ENDTAB
0
TABLE
2
DIMSTYLE
5
A
100
AcDbSymbolTable
70
1
0
ENDTAB
0
TABLE
2
BLOCK_RECORD
5
1
100
AcDbSymbolTable
70
1
0
BLOCK_RECORD
5
1F
100
AcDbSymbolTableRecord
100
AcDbBlockTableRecord
2
*MODEL_SPACE
0
BLOCK_RECORD
5
1B
100
AcDbSymbolTableRecord
100
AcDbBlockTableRecord
2
*PAPER_SPACE
0
ENDTAB
0
ENDSEC
0
SECTION
2
BLOCKS
0
BLOCK
5
20
100
AcDbEntity
100
AcDbBlockBegin
2
*MODEL_SPACE
0
ENDBLK
5
21
100
AcDbEntity
100
AcDbBlockEnd
0
BLOCK
5
1C
100
AcDbEntity
100
AcDbBlockBegin
2
*PAPER_SPACE
0
ENDBLK
5
1D
100
AcDbEntity
100
AcDbBlockEnd
0
ENDSEC
0
SECTION
2
ENTITIES
0
CIRCLE
5
100
100
AcDbEntity
8
0
100
AcDbCircle
10
19.500000000063295
20
4.5041823598188602
30
0
40
2.5
210
0
220
-0
230
1
0
CIRCLE
5
101
100
AcDbEntity
8
0
100
AcDbCircle
10
-19.499999999936698
20
4.5041823598188779
30
0
40
2.5000000000000022
210
0
220
-0
230
1
0
LWPOLYLINE
5
102
100
AcDbEntity
8
0
100
AcDbPolyline
90
247
70
1
43
0.0
10
47.000000000000128
20
-20.124679774997901
10
64.853000000000037
20
-20.124679774997905
10
64.853000000000037
20
-15.125000000000028
10
61.853000000000044
20
-15.125000000000028
10
61.853000000000044
20
-10.125000000000028
10
64.853000000000037
20
-10.125000000000027
10
64.853000000000037
20
-5.1250000000000266
10
61.853000000000037
20
-5.1250000000000266
10
61.853000000000037
20
-0.1250000000000262
10
64.853000000000023
20
-0.12500000000002398
10
64.853000000000009
20
4.874999999999976
10
61.853000000000016
20
4.8749999999999716
10
61.853000000000009
20
9.8749999999999716
10
64.853000000000009
20
9.8749999999999716
10
64.853000000000009
20
14.874999999999972
10
61.853000000000009
20
14.874999999999972
10
61.852999999999994
20
19.874999999999972
10
64.853000000000009
20
19.874999999999972
10
64.853000000000009
20
24.874999999999972
10
61.853000000000009
20
24.874999999999972
10
61.853000000000009
20
29.874999999999972
10
64.852999999999994
20
29.874999999999972
10
64.85299999999998
20
34.874999999999972
10
61.852999999999987
20
34.874999999999972
10
61.85299999999998
20
39.874999999999972
10
64.85299999999998
20
39.874999999999972
10
64.852999999999966
20
44.874999999999972
10
61.852999999999973
20
44.874999999999964
10
61.852999999999952
20
49.874999999999964
10
64.852999999999966
20
49.874999999999964
10
64.852999999999966
20
54.874999999999964
10
61.852999999999973
20
54.874999999999964
10
61.852999999999973
20
59.874999999999964
10
64.852999999999966
20
59.874999999999964
10
64.852999999999966
20
64.874999999999957
10
61.852999999999966
20
64.874999999999957
10
61.852999999999966
20
69.874999999999957
10
64.852999999999952
20
69.874999999999957
10
64.852999999999952
20
74.874999999999957
10
61.852999999999952
20
74.874999999999957
10
61.852999999999952
20
79.999999999999972
10
56.852999999999952
20
79.999999999999972
10
56.852999999999952
20
76.999999999999972
10
51.852999999999952
20
76.999999999999972
10
51.852999999999952
20
79.999999999999972
10
46.852999999999952
20
79.999999999999972
10
46.852999999999952
20
76.999999999999972
10
41.852999999999952
20
76.999999999999972
10
41.852999999999952
20
79.999999999999972
10
36.852999999999952
20
79.999999999999972
10
36.852999999999952
20
76.999999999999972
10
31.852999999999952
20
76.999999999999972
10
31.852999999999952
20
79.999999999999943
10
26.852999999999952
20
79.999999999999943
10
26.852999999999952
20
76.999999999999957
10
21.852999999999952
20
76.999999999999957
10
21.852999999999952
20
79.999999999999943
10
16.852999999999952
20
79.999999999999943
10
16.852999999999952
20
76.999999999999957
10
11.852999999999954
20
76.999999999999957
10
11.852999999999954
20
79.999999999999943
10
6.8529999999999536
20
79.999999999999943
10
6.8529999999999536
20
76.999999999999957
10
1.8529999999999536
20
76.999999999999957
10
1.8529999999999536
20
79.999999999999943
10
-0.46050000000000146
20
79.999999999999943
10
-2.7739755312703185
20
79.989359689227669
10
-2.7601778514272812
20
76.989391418723642
10
-7.7601249689339991
20
76.966395285651913
10
-7.7739226487770363
20
79.96636355615594
10
-12.773869766283754
20
79.943367423084212
10
-12.760072086440726
20
76.943399152580184
10
-17.760019203947444
20
76.920403019508456
10
-17.773816883790463
20
79.920371290012483
10
-22.773764001297199
20
79.897375156940797
10
-22.759966321454161
20
76.897406886436755
10
-27.759913438960879
20
76.874410753365026
10
-27.773711118803899
20
79.874379023869068
10
-32.773658236310638
20
79.851382890797339
10
-32.759860556467601
20
76.85141462029334
10
-37.759807673974336
20
76.828418487221612
10
-37.773605353817352
20
79.828386757725639
10
-42.773552471324066
20
79.805390624653953
10
-42.759754791481029
20
76.805422354149911
10
-47.759701908987765
20
76.782426221078182
10
-47.773499588830802
20
79.782394491582224
10
-52.773446706337509
20
79.759398358510495
10
-52.759649026494472
20
76.759430088006454
10
-57.759596144001208
20
76.736433954934725
10
-57.773393823844245
20
79.736402225438766
10
-62.773340941350938
20
79.713406092367066
10
-62.749769904952416
20
74.588460296922662
10
-65.749738175456471
20
74.574662617079625
10
-65.726742042384743
20
69.574715499572889
10
-62.726773771880708
20
69.588513179415926
10
-62.70377763880898
20
64.588566061909191
10
-65.703745909313028
20
64.574768382066182
10
-65.680749776241299
20
59.574821264559446
10
-62.680781505737272
20
59.588618944402484
10
-62.657785372665572
20
54.588671826895748
10
-65.657753643169613
20
54.574874147052753
10
-65.634757510097884
20
49.574927029546018
10
-62.634789239593815
20
49.588724709389055
10
-62.611793106522114
20
44.588777591882319
10
-65.61176137702617
20
44.574979912039282
10
-65.588765243954455
20
39.575032794532618
10
-62.588796973450407
20
39.588830474375612
10
-62.565800840378699
20
34.588883356868919
10
-65.565769110882727
20
34.575085677025882
10
-65.54277297781104
20
29.575138559519161
10
-62.542804707306999
20
29.58893623936218
10
-62.51980857423527
20
24.588989121855462
10
-65.519776844739326
20
24.575191442012443
10
-65.496780711667597
20
19.575244324505725
10
-62.496812441163542
20
19.589042004348745
10
-62.473816308091855
20
14.589094886842027
10
-65.473784578595883
20
14.575297206999007
10
-65.450788445524154
20
9.5753500894922716
10
-62.450820175020127
20
9.5891477693353089
10
-62.427824041948398
20
4.589200651828591
10
-65.427792312452425
20
4.5754029719855538
10
-65.404796179380739
20
-0.42454414552116404
10
-62.404827908876698
20
-0.41074646567812678
10
-62.38183177580499
20
-5.4106935831848446
10
-65.38180004630901
20
-5.4244912630278819
10
-65.35880391323731
20
-10.4244383805346
10
-62.358835642733283
20
-10.410640700691562
10
-62.335839509661554
20
-15.41058781819828
10
-65.335807780165595
20
-15.424385498041318
10
-65.335807780165595
20
-20.124679774997901
10
-50.000000000000107
20
-20.124679774997901
10
-49.999895595652234
20
-25.124679773907875
10
-46.999895596306246
20
-25.124617131299154
10
-46.99979119195838
20
-30.124617130209124
10
-49.999791191304368
20
-30.124679772817849
10
-49.999686786956502
20
-35.12467977172782
10
-46.999686787610514
20
-35.124617129119102
10
-46.999582383262641
20
-40.124617128029072
10
-49.999582382608629
20
-40.12467977063779
10
-49.999477978260757
20
-45.124679769547768
10
-46.999477978914769
20
-45.12461712693905
10
-46.999373574566917
20
-50.124617125849021
10
-49.999373573912905
20
-50.124679768457739
10
-49.999269169565054
20
-55.124679767367716
10
-46.999269170219065
20
-55.124617124758998
10
-46.9991647658712
20
-60.124617123668969
10
-49.999164765217188
20
-60.124679766277687
10
-49.999060360869322
20
-65.124679765187665
10
-46.999060361523334
20
-65.12461712257894
10
-46.998955957175482
20
-70.124617121488924
10
-49.998955956521471
20
-70.124679764097635
10
-49.998851552173619
20
-75.124679763007606
10
-46.998851552827631
20
-75.124617120398895
10
-46.998747148479758
20
-80.124617119308851
10
-49.998747147825746
20
-80.124679761917577
10
-49.998642743477873
20
-85.124679760827547
10
-46.998642744131885
20
-85.124617118218836
10
-46.998538339784034
20
-90.124617117128807
10
-49.998538339130022
20
-90.124679759737518
10
-49.99843393478217
20
-95.124679758647503
10
-46.998433935436182
20
-95.124617116038777
10
-46.998329531088316
20
-100.12461711494876
10
-49.998329530434305
20
-100.12467975755747
10
-49.998225126086439
20
-105.12467975646744
10
-46.998225126740451
20
-105.12461711385873
10
-46.998120722392599
20
-110.1246171127687
10
-49.998120721738587
20
-110.12467975537743
10
-50.023043684253082
20
-115.35469531365757
10
-49.9994711750672
20
-120.4799613307172
10
-44.999524057560492
20
-120.45696519764549
10
-45.01332173740353
20
-117.45699692714143
10
-40.013374619896794
20
-117.43400079406973
10
-39.999576940053778
20
-120.43396906457376
10
-34.999629822547064
20
-120.41097293150204
10
-35.013427502390101
20
-117.411004660998
10
-30.013480384883362
20
-117.38800852792629
10
-29.999682705040325
20
-120.38797679843032
10
-24.999735587533625
20
-120.36498066535862
10
-25.013533267376662
20
-117.36501239485456
10
-20.013586149869926
20
-117.34201626178285
10
-19.999788470026907
20
-120.34198453228689
10
-14.99984135252018
20
-120.31898839921517
10
-15.013639032363209
20
-117.31902012871112
10
-10.013691914856491
20
-117.29602399563942
10
-9.9998942350134623
20
-120.29599226614344
10
-4.9999471175067445
20
-120.27299613307173
10
-5.0137447973497729
20
-117.27302786256769
10
-0.013797679843055022
20
-117.25003172949597
10
8.8817841970012523e-15
20
-120.25
10
4.4408920985006262e-14
20
-117.25
10
5.0000000000000444
20
-117.25
10
5.0000000000000444
20
-120.25
10
10.000000000000044
20
-120.25
10
10.000000000000044
20
-117.25
10
15.000000000000044
20
-117.25
10
15.000000000000044
20
-120.25
10
20.000000000000043
20
-120.25
10
20.000000000000043
20
-117.25
10
25.000000000000043
20
-117.25
10
25.000000000000043
20
-120.25
10
30.000000000000043
20
-120.25
10
30.000000000000043
20
-117.25
10
35.000000000000043
20
-117.25
10
35.000000000000043
20
-120.25
10
40.000000000000043
20
-120.25
10
40.000000000000043
20
-117.25
10
45.000000000000043
20
-117.25
10
45.000000000000043
20
-120.25
10
50.000000000000043
20
-120.25
10
50.000000000000043
20
-115.1246797749979
10
47.000000000000057
20
-115.1246797749979
10
47.000000000000057
20
-110.1246797749979
10
50.000000000000057
20
-110.1246797749979
10
50.000000000000057
20
-105.1246797749979
10
47.000000000000064
20
-105.1246797749979
10
47.000000000000064
20
-100.1246797749979
10
50.000000000000064
20
-100.1246797749979
10
50.000000000000064
20
-95.124679774997901
10
47.000000000000071
20
-95.124679774997901
10
47.000000000000071
20
-90.124679774997901
10
50.000000000000071
20
-90.124679774997901
10
50.000000000000071
20
-85.124679774997901
10
47.000000000000085
20
-85.124679774997901
10
47.000000000000085
20
-80.124679774997901
10
50.000000000000078
20
-80.124679774997901
10
50.000000000000078
20
-75.124679774997901
10
47.000000000000092
20
-75.124679774997901
10
47.000000000000092
20
-70.124679774997901
10
50.000000000000085
20
-70.124679774997901
10
50.000000000000085
20
-65.124679774997901
10
47.000000000000099
20
-65.124679774997901
10
47.000000000000099
20
-60.124679774997901
10
50.000000000000099
20
-60.124679774997901
10
50.000000000000099
20
-55.124679774997901
10
47.000000000000107
20
-55.124679774997901
10
47.000000000000107
20
-50.124679774997901
10
50.000000000000107
20
-50.124679774997901
10
50.000000000000107
20
-45.124679774997901
10
47.000000000000107
20
-45.124679774997901
10
47.000000000000107
20
-40.124679774997901
10
50.000000000000107
20
-40.124679774997901
10
50.000000000000114
20
-35.124679774997901
10
47.000000000000128
20
-35.124679774997901
10
47.000000000000128
20
-30.124679774997901
10
50.000000000000128
20
-30.124679774997901
10
50.000000000000128
20
-25.124679774997901
10
47.000000000000135
20
-25.124679774997901
0
ENDSEC
0
SECTION
2
OBJECTS
0
DICTIONARY
5
C
100
AcDbDictionary
3
ACAD_GROUP
350
D
3
ACAD_MLINESTYLE
350
17
0
DICTIONARY
5
D
100
AcDbDictionary
0
DICTIONARY
5
1A
330
C
100
AcDbDictionary
0
DICTIONARY
5
17
100
AcDbDictionary
0
ENDSEC
0
EOF
